<mxfile modified="2020-04-16T13:14:32.406Z" host="app.diagrams.net" agent="5.0 (Windows NT 10.0; Win64; x64) AppleWebKit/537.36 (KHTML, like Gecko) Chrome/80.0.3987.163 Safari/537.36" etag="77F9h3vKkjh0gxfP0h6P" version="12.9.13" type="github">
  <diagram id="WI9T0HZ2pTsCkuznbFz-" name="Page-1">
    <mxGraphModel dx="1422" dy="794" grid="1" gridSize="10" guides="1" tooltips="1" connect="1" arrows="1" fold="1" page="1" pageScale="1" pageWidth="1169" pageHeight="827" math="0" shadow="0">
      <root>
        <mxCell id="0" />
        <mxCell id="1" parent="0" />
        <mxCell id="46Nr-ciOrfHZb8CZ5osq-67" value="缓存" style="edgeStyle=orthogonalEdgeStyle;rounded=0;orthogonalLoop=1;jettySize=auto;html=1;startArrow=classic;startFill=1;endArrow=classic;endFill=1;" edge="1" parent="1" source="46Nr-ciOrfHZb8CZ5osq-5" target="46Nr-ciOrfHZb8CZ5osq-40">
          <mxGeometry relative="1" as="geometry">
            <Array as="points">
              <mxPoint x="545" y="549.25" />
              <mxPoint x="545" y="549.25" />
            </Array>
          </mxGeometry>
        </mxCell>
        <mxCell id="46Nr-ciOrfHZb8CZ5osq-5" value="Redis" style="aspect=fixed;html=1;points=[];align=center;image;fontSize=12;image=img/lib/mscae/Cache_Redis_Product.svg;" vertex="1" parent="1">
          <mxGeometry x="520" y="601.75" width="50" height="42" as="geometry" />
        </mxCell>
        <mxCell id="46Nr-ciOrfHZb8CZ5osq-62" value="" style="edgeStyle=orthogonalEdgeStyle;rounded=0;orthogonalLoop=1;jettySize=auto;html=1;startArrow=classic;startFill=1;endArrow=classic;endFill=1;" edge="1" parent="1" source="46Nr-ciOrfHZb8CZ5osq-6" target="46Nr-ciOrfHZb8CZ5osq-58">
          <mxGeometry relative="1" as="geometry" />
        </mxCell>
        <mxCell id="46Nr-ciOrfHZb8CZ5osq-79" value="" style="edgeStyle=orthogonalEdgeStyle;rounded=0;orthogonalLoop=1;jettySize=auto;html=1;startArrow=classic;startFill=1;endArrow=classic;endFill=1;" edge="1" parent="1" source="46Nr-ciOrfHZb8CZ5osq-6" target="46Nr-ciOrfHZb8CZ5osq-52">
          <mxGeometry relative="1" as="geometry" />
        </mxCell>
        <mxCell id="46Nr-ciOrfHZb8CZ5osq-6" value="Nginx" style="shape=image;html=1;verticalAlign=top;verticalLabelPosition=bottom;labelBackgroundColor=#ffffff;imageAspect=0;aspect=fixed;image=https://cdn4.iconfinder.com/data/icons/logos-brands-5/24/nginx-128.png;imageBackground=#ffffff;" vertex="1" parent="1">
          <mxGeometry x="280" y="354.5" width="50" height="49" as="geometry" />
        </mxCell>
        <mxCell id="46Nr-ciOrfHZb8CZ5osq-68" value="持久化" style="edgeStyle=orthogonalEdgeStyle;rounded=0;orthogonalLoop=1;jettySize=auto;html=1;startArrow=classic;startFill=1;endArrow=classic;endFill=1;" edge="1" parent="1" source="46Nr-ciOrfHZb8CZ5osq-13" target="46Nr-ciOrfHZb8CZ5osq-40">
          <mxGeometry relative="1" as="geometry">
            <Array as="points">
              <mxPoint x="634" y="549.25" />
              <mxPoint x="634" y="549.25" />
            </Array>
          </mxGeometry>
        </mxCell>
        <mxCell id="46Nr-ciOrfHZb8CZ5osq-13" value="Oracle" style="verticalLabelPosition=bottom;html=1;verticalAlign=top;align=center;strokeColor=none;fillColor=#00BEF2;shape=mxgraph.azure.database;" vertex="1" parent="1">
          <mxGeometry x="615" y="601.75" width="37.5" height="50" as="geometry" />
        </mxCell>
        <mxCell id="46Nr-ciOrfHZb8CZ5osq-69" value="文档转换/预览" style="edgeStyle=orthogonalEdgeStyle;rounded=0;orthogonalLoop=1;jettySize=auto;html=1;startArrow=classic;startFill=1;endArrow=classic;endFill=1;" edge="1" parent="1" source="46Nr-ciOrfHZb8CZ5osq-14" target="46Nr-ciOrfHZb8CZ5osq-40">
          <mxGeometry relative="1" as="geometry">
            <Array as="points">
              <mxPoint x="736" y="549.25" />
              <mxPoint x="736" y="549.25" />
            </Array>
          </mxGeometry>
        </mxCell>
        <mxCell id="46Nr-ciOrfHZb8CZ5osq-14" value="文档转换" style="verticalLabelPosition=bottom;html=1;verticalAlign=top;align=center;strokeColor=none;fillColor=#00BEF2;shape=mxgraph.azure.sql_reporting;" vertex="1" parent="1">
          <mxGeometry x="715.75" y="601.75" width="40" height="50" as="geometry" />
        </mxCell>
        <mxCell id="46Nr-ciOrfHZb8CZ5osq-72" value="服务注册" style="edgeStyle=orthogonalEdgeStyle;rounded=0;orthogonalLoop=1;jettySize=auto;html=1;startArrow=classic;startFill=1;endArrow=classic;endFill=1;" edge="1" parent="1" target="46Nr-ciOrfHZb8CZ5osq-40">
          <mxGeometry relative="1" as="geometry">
            <mxPoint x="470" y="145" as="sourcePoint" />
          </mxGeometry>
        </mxCell>
        <mxCell id="46Nr-ciOrfHZb8CZ5osq-70" value="消息队列" style="edgeStyle=orthogonalEdgeStyle;rounded=0;orthogonalLoop=1;jettySize=auto;html=1;startArrow=classic;startFill=1;endArrow=classic;endFill=1;" edge="1" parent="1" source="46Nr-ciOrfHZb8CZ5osq-25" target="46Nr-ciOrfHZb8CZ5osq-40">
          <mxGeometry relative="1" as="geometry">
            <Array as="points">
              <mxPoint x="825" y="549.25" />
              <mxPoint x="825" y="549.25" />
            </Array>
          </mxGeometry>
        </mxCell>
        <mxCell id="46Nr-ciOrfHZb8CZ5osq-25" value="RabbitMQ" style="verticalLabelPosition=bottom;html=1;verticalAlign=top;align=center;strokeColor=none;fillColor=#00BEF2;shape=mxgraph.azure.storage_queue;" vertex="1" parent="1">
          <mxGeometry x="800" y="601.75" width="50" height="45" as="geometry" />
        </mxCell>
        <mxCell id="46Nr-ciOrfHZb8CZ5osq-81" value="" style="edgeStyle=orthogonalEdgeStyle;rounded=0;orthogonalLoop=1;jettySize=auto;html=1;startArrow=classic;startFill=1;endArrow=classic;endFill=1;" edge="1" parent="1" source="46Nr-ciOrfHZb8CZ5osq-40" target="46Nr-ciOrfHZb8CZ5osq-52">
          <mxGeometry relative="1" as="geometry" />
        </mxCell>
        <mxCell id="46Nr-ciOrfHZb8CZ5osq-40" value="" style="rounded=0;whiteSpace=wrap;html=1;dashed=1;fillColor=#ffffff;gradientColor=none;glass=0;" vertex="1" parent="1">
          <mxGeometry x="510" y="229.25" width="420" height="300" as="geometry" />
        </mxCell>
        <mxCell id="46Nr-ciOrfHZb8CZ5osq-41" value="即时通讯" style="verticalLabelPosition=bottom;html=1;verticalAlign=top;align=center;strokeColor=none;fillColor=#00BEF2;shape=mxgraph.azure.cloud_service_package_file;" vertex="1" parent="1">
          <mxGeometry x="573.75" y="426.75" width="42.5" height="50" as="geometry" />
        </mxCell>
        <mxCell id="46Nr-ciOrfHZb8CZ5osq-42" value="学习提能" style="verticalLabelPosition=bottom;html=1;verticalAlign=top;align=center;strokeColor=none;fillColor=#00BEF2;shape=mxgraph.azure.cloud_service_package_file;" vertex="1" parent="1">
          <mxGeometry x="699.75" y="337.75" width="42.5" height="50" as="geometry" />
        </mxCell>
        <mxCell id="46Nr-ciOrfHZb8CZ5osq-43" value="基础功能" style="verticalLabelPosition=bottom;html=1;verticalAlign=top;align=center;strokeColor=none;fillColor=#00BEF2;shape=mxgraph.azure.cloud_service_package_file;" vertex="1" parent="1">
          <mxGeometry x="818" y="425.75" width="42.5" height="50" as="geometry" />
        </mxCell>
        <mxCell id="46Nr-ciOrfHZb8CZ5osq-44" value="综合事务" style="verticalLabelPosition=bottom;html=1;verticalAlign=top;align=center;strokeColor=none;fillColor=#00BEF2;shape=mxgraph.azure.cloud_service_package_file;" vertex="1" parent="1">
          <mxGeometry x="573.75" y="336.75" width="42.5" height="50" as="geometry" />
        </mxCell>
        <mxCell id="46Nr-ciOrfHZb8CZ5osq-45" value="通用业务" style="verticalLabelPosition=bottom;html=1;verticalAlign=top;align=center;strokeColor=none;fillColor=#00BEF2;shape=mxgraph.azure.cloud_service_package_file;" vertex="1" parent="1">
          <mxGeometry x="699.75" y="425.75" width="42.5" height="50" as="geometry" />
        </mxCell>
        <mxCell id="46Nr-ciOrfHZb8CZ5osq-46" value="信息交流" style="verticalLabelPosition=bottom;html=1;verticalAlign=top;align=center;strokeColor=none;fillColor=#00BEF2;shape=mxgraph.azure.cloud_service_package_file;" vertex="1" parent="1">
          <mxGeometry x="818" y="339.25" width="42.5" height="50" as="geometry" />
        </mxCell>
        <mxCell id="46Nr-ciOrfHZb8CZ5osq-47" value="人才管理" style="verticalLabelPosition=bottom;html=1;verticalAlign=top;align=center;strokeColor=none;fillColor=#00BEF2;shape=mxgraph.azure.cloud_service_package_file;" vertex="1" parent="1">
          <mxGeometry x="697.75" y="256.75" width="42.5" height="50" as="geometry" />
        </mxCell>
        <mxCell id="46Nr-ciOrfHZb8CZ5osq-50" value="静态资源" style="verticalLabelPosition=bottom;html=1;verticalAlign=top;align=center;strokeColor=none;fillColor=#00BEF2;shape=mxgraph.azure.cloud_service_package_file;" vertex="1" parent="1">
          <mxGeometry x="573.75" y="256.75" width="42.5" height="50" as="geometry" />
        </mxCell>
        <mxCell id="46Nr-ciOrfHZb8CZ5osq-51" value="外部集成" style="verticalLabelPosition=bottom;html=1;verticalAlign=top;align=center;strokeColor=none;fillColor=#00BEF2;shape=mxgraph.azure.cloud_service_package_file;" vertex="1" parent="1">
          <mxGeometry x="818" y="255.75" width="42.5" height="50" as="geometry" />
        </mxCell>
        <mxCell id="46Nr-ciOrfHZb8CZ5osq-74" value="服务发现" style="edgeStyle=orthogonalEdgeStyle;rounded=0;orthogonalLoop=1;jettySize=auto;html=1;startArrow=classic;startFill=1;endArrow=classic;endFill=1;entryX=0.5;entryY=1;entryDx=0;entryDy=0;" edge="1" parent="1" source="46Nr-ciOrfHZb8CZ5osq-52" target="46Nr-ciOrfHZb8CZ5osq-77">
          <mxGeometry relative="1" as="geometry">
            <mxPoint x="415" y="210" as="targetPoint" />
          </mxGeometry>
        </mxCell>
        <mxCell id="46Nr-ciOrfHZb8CZ5osq-52" value="网关/安全" style="aspect=fixed;html=1;points=[];align=center;image;fontSize=12;image=img/lib/mscae/Application_Gateway.svg;" vertex="1" parent="1">
          <mxGeometry x="396" y="355" width="50" height="48" as="geometry" />
        </mxCell>
        <mxCell id="46Nr-ciOrfHZb8CZ5osq-65" value="" style="edgeStyle=orthogonalEdgeStyle;rounded=0;orthogonalLoop=1;jettySize=auto;html=1;startArrow=classic;startFill=1;endArrow=classic;endFill=1;" edge="1" parent="1" source="46Nr-ciOrfHZb8CZ5osq-53" target="46Nr-ciOrfHZb8CZ5osq-40">
          <mxGeometry relative="1" as="geometry" />
        </mxCell>
        <mxCell id="46Nr-ciOrfHZb8CZ5osq-76" value="" style="edgeStyle=orthogonalEdgeStyle;rounded=0;orthogonalLoop=1;jettySize=auto;html=1;startArrow=classic;startFill=1;endArrow=classic;endFill=1;" edge="1" parent="1" source="46Nr-ciOrfHZb8CZ5osq-53">
          <mxGeometry relative="1" as="geometry">
            <mxPoint x="470" y="145" as="targetPoint" />
            <Array as="points">
              <mxPoint x="1035" y="145" />
            </Array>
          </mxGeometry>
        </mxCell>
        <mxCell id="46Nr-ciOrfHZb8CZ5osq-53" value="" style="rounded=0;whiteSpace=wrap;html=1;dashed=1;" vertex="1" parent="1">
          <mxGeometry x="972" y="229.25" width="125" height="300" as="geometry" />
        </mxCell>
        <mxCell id="46Nr-ciOrfHZb8CZ5osq-54" value="用户中心" style="verticalLabelPosition=bottom;html=1;verticalAlign=top;align=center;strokeColor=none;fillColor=#00BEF2;shape=mxgraph.azure.cloud_service_package_file;" vertex="1" parent="1">
          <mxGeometry x="1007" y="239.25" width="42.5" height="50" as="geometry" />
        </mxCell>
        <mxCell id="46Nr-ciOrfHZb8CZ5osq-56" value="中&lt;br&gt;台&lt;br&gt;服&lt;br&gt;务" style="text;html=1;strokeColor=none;fillColor=none;align=center;verticalAlign=middle;whiteSpace=wrap;rounded=0;dashed=1;fontStyle=1" vertex="1" parent="1">
          <mxGeometry x="1057" y="339.25" width="40" height="70" as="geometry" />
        </mxCell>
        <mxCell id="46Nr-ciOrfHZb8CZ5osq-57" value="业&lt;br&gt;务&lt;br&gt;集&lt;br&gt;群" style="text;html=1;strokeColor=none;fillColor=none;align=center;verticalAlign=middle;whiteSpace=wrap;rounded=0;dashed=1;fontStyle=1" vertex="1" parent="1">
          <mxGeometry x="890" y="343.25" width="40" height="70" as="geometry" />
        </mxCell>
        <mxCell id="46Nr-ciOrfHZb8CZ5osq-58" value="" style="rounded=0;whiteSpace=wrap;html=1;glass=0;dashed=1;fillColor=#ffffff;gradientColor=none;" vertex="1" parent="1">
          <mxGeometry x="120" y="230" width="120" height="298" as="geometry" />
        </mxCell>
        <mxCell id="46Nr-ciOrfHZb8CZ5osq-59" value="" style="verticalLabelPosition=bottom;html=1;verticalAlign=top;align=center;strokeColor=none;fillColor=#00BEF2;shape=mxgraph.azure.mobile;pointerEvents=1;" vertex="1" parent="1">
          <mxGeometry x="162.5" y="305.5" width="35" height="48" as="geometry" />
        </mxCell>
        <mxCell id="46Nr-ciOrfHZb8CZ5osq-60" value="" style="verticalLabelPosition=bottom;html=1;verticalAlign=top;align=center;strokeColor=none;fillColor=#00BEF2;shape=mxgraph.azure.computer;pointerEvents=1;" vertex="1" parent="1">
          <mxGeometry x="155" y="399.5" width="50" height="43" as="geometry" />
        </mxCell>
        <mxCell id="46Nr-ciOrfHZb8CZ5osq-61" value="知识中台" style="verticalLabelPosition=bottom;html=1;verticalAlign=top;align=center;strokeColor=none;fillColor=#00BEF2;shape=mxgraph.azure.cloud_service_package_file;" vertex="1" parent="1">
          <mxGeometry x="1007" y="329.25" width="42.5" height="50" as="geometry" />
        </mxCell>
        <mxCell id="46Nr-ciOrfHZb8CZ5osq-63" value="消息推送" style="verticalLabelPosition=bottom;html=1;verticalAlign=top;align=center;strokeColor=none;fillColor=#00BEF2;shape=mxgraph.azure.cloud_service_package_file;" vertex="1" parent="1">
          <mxGeometry x="1007" y="425.75" width="42.5" height="50" as="geometry" />
        </mxCell>
        <mxCell id="46Nr-ciOrfHZb8CZ5osq-71" value="文档全文检索" style="edgeStyle=orthogonalEdgeStyle;rounded=0;orthogonalLoop=1;jettySize=auto;html=1;startArrow=classic;startFill=1;endArrow=classic;endFill=1;" edge="1" parent="1" source="46Nr-ciOrfHZb8CZ5osq-66" target="46Nr-ciOrfHZb8CZ5osq-40">
          <mxGeometry relative="1" as="geometry">
            <Array as="points">
              <mxPoint x="914" y="549.25" />
              <mxPoint x="914" y="549.25" />
            </Array>
          </mxGeometry>
        </mxCell>
        <mxCell id="46Nr-ciOrfHZb8CZ5osq-66" value="ES" style="outlineConnect=0;dashed=0;verticalLabelPosition=bottom;verticalAlign=top;align=center;html=1;shape=mxgraph.aws3.elasticsearch_service;fillColor=#F58534;gradientColor=none;rounded=0;glass=0;" vertex="1" parent="1">
          <mxGeometry x="890" y="601.75" width="47" height="50" as="geometry" />
        </mxCell>
        <mxCell id="46Nr-ciOrfHZb8CZ5osq-77" value="" style="rounded=0;whiteSpace=wrap;html=1;glass=0;dashed=1;fillColor=#ffffff;gradientColor=none;" vertex="1" parent="1">
          <mxGeometry x="370" y="100" width="100" height="86.25" as="geometry" />
        </mxCell>
        <mxCell id="46Nr-ciOrfHZb8CZ5osq-78" value="注册中心" style="verticalLabelPosition=bottom;html=1;verticalAlign=top;align=center;strokeColor=none;fillColor=#00BEF2;shape=mxgraph.azure.cloud_service_package_file;" vertex="1" parent="1">
          <mxGeometry x="397.5" y="110" width="42.5" height="50" as="geometry" />
        </mxCell>
        <mxCell id="46Nr-ciOrfHZb8CZ5osq-82" value="Text" style="text;html=1;align=center;verticalAlign=middle;resizable=0;points=[];autosize=1;" vertex="1" parent="1">
          <mxGeometry x="455" y="552" width="40" height="20" as="geometry" />
        </mxCell>
      </root>
    </mxGraphModel>
  </diagram>
</mxfile>
